# xmcd
#
# Track frame offsets:
# 182
# 15340
# 31132
# 45142
# 60900
# 74885
# 90057
# 103362
# 122207
# 140960
# 154112
# 167110
# 179910
# 198440
# 219970
# 234140
# 253857
# 270347
# 285815
# 297802
# 318757
# 334130
#
# Disc length: 4656 seconds
#
#
# Revision: 4
# Processed by: cddbd v1.5.1PL0 Copyright (c) Steve Scherf et al.
# Submitted via: FreeRIP 2.92 
#
DISCID=32122e16
DTITLE=Edith Piaf - Etoiles de la chanson
DYEAR=1999
DGENRE=Chanson
TTITLE0=Les momes de la cloche
TTITLE1=L'etranger
TTITLE2=J'suis mordue
TTITLE3=Va danser
TTITLE4=Entre Saint-Ouen et Clignancourt
TTITLE5=Madeleine qui avait du coeur
TTITLE6=Les deux copains
TTITLE7=On danse sur ma chanson
TTITLE8=C'etait la moindre des choses
TTITLE9=Embrasse-moi
TTITLE10=Y'en a un de trop
TTITLE11=Tu es partout
TTITLE12=Le disque use
TTITLE13=Histoire de coeur
TTITLE14=Le brun et le blond
TTITLE15=Coup de grisou
TTITLE16=Le chasseur de l'hotel
TTITLE17=Les deux rengaines
TTITLE18=Y'a pas d'printemps
TTITLE19=Monsieur Saint-Pierre
TTITLE20=Escale
TTITLE21=D' l'autre cote de la rue
EXTD=
EXTT0=
EXTT1=
EXTT2=
EXTT3=
EXTT4=
EXTT5=
EXTT6=
EXTT7=
EXTT8=
EXTT9=
EXTT10=
EXTT11=
EXTT12=
EXTT13=
EXTT14=
EXTT15=
EXTT16=
EXTT17=
EXTT18=
EXTT19=
EXTT20=
EXTT21=
PLAYORDER=
